<svg width="100" height="100" viewBox="0 0 100 100" fill="none" xmlns="http://www.w3.org/2000/svg">
<rect width="100" height="100" rx="20" fill="black"/>
<g clip-path="url(#clip0_34_7)">
<path d="M52.5603 59.3473C62.5973 51.0607 66.9583 39.8415 62.3009 34.2886C57.6434 28.7356 45.7312 30.9517 35.6941 39.2382C25.6571 47.5248 21.2961 58.744 25.9535 64.297C30.611 69.8499 42.5232 67.6339 52.5603 59.3473Z" fill="white"/>
<path d="M34.0126 31.4327C52.4095 16.2442 74.491 12.4776 83.333 23.0196C92.1747 33.5617 84.4288 54.4203 66.0321 69.6087C47.6352 84.797 25.5538 88.5636 16.7118 78.0218C7.86993 67.4798 15.6157 46.6211 34.0126 31.4327ZM71.1068 29.4791C64.5802 21.6976 48.1261 24.6058 34.3556 35.9747C20.585 47.3436 14.7127 62.8682 21.2393 70.6498C27.7659 78.4313 44.22 75.5231 57.9906 64.1542C71.7611 52.7853 77.6335 37.2606 71.1068 29.4791Z" fill="white"/>
</g>
<defs>
<clipPath id="clip0_34_7">
<rect width="74" height="67" fill="white" transform="translate(13 17)"/>
</clipPath>
</defs>
</svg>
