<svg width="657" height="115" viewBox="0 0 657 115" fill="none" xmlns="http://www.w3.org/2000/svg">
<path d="M39.5047 65.3473C49.5417 57.0607 53.9027 45.8415 49.2453 40.2886C44.5878 34.7356 32.6756 36.9517 22.6385 45.2382C12.6015 53.5248 8.24045 64.744 12.8979 70.297C17.5554 75.8499 29.4676 73.6339 39.5047 65.3473Z" fill="#151515"/>
<path d="M20.9568 37.4328C39.3537 22.2443 61.4352 18.4777 70.2773 29.0197C79.119 39.5618 71.3731 60.4204 52.9764 75.6088C34.5795 90.7971 12.4981 94.5637 3.65611 84.0219C-5.1858 73.4799 2.56001 52.6212 20.9568 37.4328ZM58.0511 35.4792C51.5245 27.6977 35.0704 30.6059 21.2998 41.9748C7.52931 53.3437 1.65695 68.8683 8.18356 76.6498C14.7102 84.4313 31.1643 81.5232 44.9348 70.1543C58.7054 58.7853 64.5778 43.2607 58.0511 35.4792Z" fill="#151515"/>
<path d="M20.9568 37.4327C39.3537 22.2442 61.4352 18.4776 70.2773 29.0196C79.119 39.5617 71.3731 60.4203 52.9764 75.6087C34.5795 90.797 12.4981 94.5636 3.65611 84.0218C-5.1858 73.4798 2.56001 52.6211 20.9568 37.4327ZM58.0511 35.4791C51.5245 27.6976 35.0704 30.6057 21.2998 41.9746C7.52931 53.3436 1.65695 68.8682 8.18356 76.6497C14.7102 84.4312 31.1643 81.523 44.9348 70.1541C58.7054 58.7852 64.5778 43.2606 58.0511 35.4791Z" fill="#151515"/>
<path d="M136.129 90.056C131.905 90.056 128.289 89.32 125.281 87.848C122.273 86.312 119.841 84.328 117.985 81.896C116.129 79.4 114.753 76.712 113.857 73.832C112.961 70.888 112.513 68.008 112.513 65.192C112.513 61.672 112.929 58.408 113.761 55.4C114.657 52.392 116.033 49.768 117.889 47.528C119.745 45.224 122.177 43.432 125.185 42.152C128.193 40.872 131.841 40.232 136.129 40.232C141.057 40.232 145.409 41.288 149.185 43.4C153.025 45.448 156.033 48.328 158.209 52.04C160.449 55.752 161.569 60.136 161.569 65.192C161.569 70.12 160.449 74.472 158.209 78.248C155.969 81.96 152.929 84.872 149.089 86.984C145.249 89.032 140.929 90.056 136.129 90.056ZM132.097 80.456C135.489 80.456 138.433 79.816 140.929 78.536C143.425 77.256 145.345 75.496 146.689 73.256C148.097 70.952 148.801 68.264 148.801 65.192C148.801 60.584 147.329 56.872 144.385 54.056C141.505 51.24 137.409 49.832 132.097 49.832C128.385 49.832 125.153 50.44 122.401 51.656C119.649 52.872 117.505 54.632 115.969 56.936C114.497 59.176 113.761 61.928 113.761 65.192C113.761 68.2 114.497 70.856 115.969 73.16C117.441 75.464 119.553 77.256 122.305 78.536C125.057 79.816 128.321 80.456 132.097 80.456ZM113.761 22.088V76.712C113.761 78.76 113.665 80.968 113.473 83.336C113.281 85.64 113.089 87.528 112.897 89H101.281V22.088H113.761ZM198.926 90.152C192.91 90.152 187.598 89.192 182.99 87.272C178.446 85.352 174.894 82.568 172.334 78.92C169.774 75.208 168.494 70.664 168.494 65.288C168.494 59.912 169.774 55.368 172.334 51.656C174.894 47.88 178.446 45.032 182.99 43.112C187.598 41.192 192.91 40.232 198.926 40.232C204.942 40.232 210.19 41.192 214.67 43.112C219.214 45.032 222.766 47.88 225.326 51.656C227.886 55.368 229.166 59.912 229.166 65.288C229.166 70.664 227.886 75.208 225.326 78.92C222.766 82.568 219.214 85.352 214.67 87.272C210.19 89.192 204.942 90.152 198.926 90.152ZM198.926 80.552C202.254 80.552 205.23 79.976 207.854 78.824C210.542 77.608 212.654 75.88 214.19 73.64C215.726 71.336 216.494 68.552 216.494 65.288C216.494 62.024 215.726 59.24 214.19 56.936C212.654 54.568 210.574 52.776 207.95 51.56C205.326 50.344 202.318 49.736 198.926 49.736C195.598 49.736 192.59 50.344 189.902 51.56C187.214 52.776 185.07 54.536 183.47 56.84C181.934 59.144 181.166 61.96 181.166 65.288C181.166 68.552 181.934 71.336 183.47 73.64C185.006 75.88 187.118 77.608 189.806 78.824C192.494 79.976 195.534 80.552 198.926 80.552ZM238.392 41.288H250.872V89H238.392V41.288ZM269.208 51.56C265.624 51.56 262.52 52.264 259.896 53.672C257.272 55.016 255.16 56.68 253.56 58.664C251.96 60.648 250.84 62.568 250.2 64.424L250.104 59.144C250.168 58.376 250.424 57.256 250.872 55.784C251.32 54.248 251.992 52.616 252.888 50.888C253.784 49.096 254.968 47.4 256.44 45.8C257.912 44.136 259.704 42.792 261.816 41.768C263.928 40.744 266.392 40.232 269.208 40.232V51.56ZM320.411 73.16H332.507C331.995 76.424 330.619 79.336 328.379 81.896C326.203 84.456 323.227 86.472 319.451 87.944C315.675 89.416 311.067 90.152 305.627 90.152C299.547 90.152 294.171 89.192 289.499 87.272C284.827 85.288 281.179 82.44 278.555 78.728C275.931 75.016 274.619 70.536 274.619 65.288C274.619 60.04 275.899 55.56 278.459 51.848C281.019 48.072 284.571 45.192 289.115 43.208C293.723 41.224 299.099 40.232 305.243 40.232C311.515 40.232 316.731 41.224 320.891 43.208C325.051 45.192 328.123 48.2 330.107 52.232C332.155 56.2 333.019 61.288 332.699 67.496H287.195C287.515 69.928 288.411 72.136 289.883 74.12C291.419 76.104 293.467 77.672 296.027 78.824C298.651 79.976 301.755 80.552 305.339 80.552C309.307 80.552 312.603 79.88 315.227 78.536C317.915 77.128 319.643 75.336 320.411 73.16ZM304.667 49.736C300.059 49.736 296.315 50.76 293.435 52.808C290.555 54.792 288.699 57.256 287.867 60.2H320.315C319.995 57 318.459 54.472 315.707 52.616C313.019 50.696 309.339 49.736 304.667 49.736ZM378.754 90.056C374.53 90.056 370.914 89.32 367.906 87.848C364.898 86.312 362.466 84.328 360.61 81.896C358.754 79.4 357.378 76.712 356.482 73.832C355.586 70.888 355.138 68.008 355.138 65.192C355.138 61.672 355.554 58.408 356.386 55.4C357.282 52.392 358.658 49.768 360.514 47.528C362.37 45.224 364.802 43.432 367.81 42.152C370.818 40.872 374.466 40.232 378.754 40.232C383.682 40.232 388.034 41.288 391.81 43.4C395.65 45.448 398.658 48.328 400.834 52.04C403.074 55.752 404.194 60.136 404.194 65.192C404.194 70.12 403.074 74.472 400.834 78.248C398.594 81.96 395.554 84.872 391.714 86.984C387.874 89.032 383.554 90.056 378.754 90.056ZM374.722 80.456C378.114 80.456 381.058 79.816 383.554 78.536C386.05 77.256 387.97 75.496 389.314 73.256C390.722 70.952 391.426 68.264 391.426 65.192C391.426 60.584 389.954 56.872 387.01 54.056C384.13 51.24 380.034 49.832 374.722 49.832C371.01 49.832 367.778 50.44 365.026 51.656C362.274 52.872 360.13 54.632 358.594 56.936C357.122 59.176 356.386 61.928 356.386 65.192C356.386 68.2 357.122 70.856 358.594 73.16C360.066 75.464 362.178 77.256 364.93 78.536C367.682 79.816 370.946 80.456 374.722 80.456ZM356.386 22.088V76.712C356.386 78.76 356.29 80.968 356.098 83.336C355.906 85.64 355.714 87.528 355.522 89H343.906V22.088H356.386ZM436.655 90.056C431.919 90.056 427.599 89.032 423.695 86.984C419.855 84.872 416.783 81.96 414.479 78.248C412.239 74.472 411.119 70.12 411.119 65.192C411.119 60.136 412.271 55.752 414.575 52.04C416.879 48.328 419.983 45.448 423.887 43.4C427.855 41.288 432.335 40.232 437.327 40.232C442.831 40.232 447.247 41.352 450.575 43.592C453.967 45.768 456.431 48.744 457.967 52.52C459.503 56.296 460.271 60.52 460.271 65.192C460.271 68.008 459.823 70.888 458.927 73.832C458.031 76.712 456.655 79.4 454.799 81.896C452.943 84.328 450.511 86.312 447.503 87.848C444.495 89.32 440.879 90.056 436.655 90.056ZM440.687 80.456C444.463 80.456 447.727 79.816 450.479 78.536C453.231 77.256 455.343 75.464 456.815 73.16C458.287 70.856 459.023 68.2 459.023 65.192C459.023 61.928 458.255 59.176 456.719 56.936C455.247 54.632 453.135 52.904 450.383 51.752C447.695 50.536 444.463 49.928 440.687 49.928C435.375 49.928 431.247 51.336 428.303 54.152C425.359 56.904 423.887 60.584 423.887 65.192C423.887 68.264 424.591 70.952 425.999 73.256C427.407 75.496 429.359 77.256 431.855 78.536C434.415 79.816 437.359 80.456 440.687 80.456ZM459.023 41.288H471.503V89H459.887C459.887 89 459.791 88.392 459.599 87.176C459.471 85.896 459.343 84.296 459.215 82.376C459.087 80.456 459.023 78.568 459.023 76.712V41.288ZM480.878 73.16H492.398C493.102 75.336 494.542 77.128 496.718 78.536C498.958 79.88 501.87 80.552 505.454 80.552C507.886 80.552 509.774 80.328 511.118 79.88C512.462 79.432 513.39 78.792 513.902 77.96C514.414 77.064 514.67 76.072 514.67 74.984C514.67 73.64 514.254 72.616 513.422 71.912C512.59 71.144 511.31 70.536 509.582 70.088C507.854 69.64 505.646 69.224 502.958 68.84C500.27 68.392 497.678 67.848 495.182 67.208C492.686 66.568 490.478 65.736 488.558 64.712C486.638 63.624 485.102 62.28 483.95 60.68C482.862 59.016 482.318 57 482.318 54.632C482.318 52.328 482.862 50.28 483.95 48.488C485.102 46.696 486.67 45.192 488.654 43.976C490.702 42.76 493.07 41.832 495.758 41.192C498.51 40.552 501.454 40.232 504.59 40.232C509.326 40.232 513.262 40.936 516.398 42.344C519.534 43.688 521.87 45.608 523.406 48.104C525.006 50.536 525.806 53.352 525.806 56.552H514.766C514.254 54.184 513.23 52.488 511.694 51.464C510.158 50.376 507.79 49.832 504.59 49.832C501.454 49.832 499.086 50.312 497.486 51.272C495.886 52.232 495.086 53.544 495.086 55.208C495.086 56.552 495.566 57.608 496.526 58.376C497.55 59.08 499.022 59.656 500.942 60.104C502.926 60.552 505.39 61.032 508.334 61.544C510.83 62.056 513.198 62.632 515.438 63.272C517.742 63.912 519.79 64.744 521.582 65.768C523.374 66.728 524.782 68.04 525.806 69.704C526.894 71.304 527.438 73.352 527.438 75.848C527.438 78.92 526.542 81.512 524.75 83.624C523.022 85.736 520.526 87.368 517.262 88.52C513.998 89.608 510.094 90.152 505.55 90.152C501.518 90.152 498.03 89.736 495.086 88.904C492.206 88.008 489.806 86.888 487.886 85.544C485.966 84.136 484.462 82.664 483.374 81.128C482.35 79.528 481.646 78.024 481.262 76.616C480.878 75.208 480.75 74.056 480.878 73.16ZM580.474 73.16H592.57C592.058 76.424 590.682 79.336 588.442 81.896C586.266 84.456 583.29 86.472 579.514 87.944C575.738 89.416 571.13 90.152 565.69 90.152C559.61 90.152 554.234 89.192 549.562 87.272C544.89 85.288 541.242 82.44 538.618 78.728C535.994 75.016 534.682 70.536 534.682 65.288C534.682 60.04 535.962 55.56 538.522 51.848C541.082 48.072 544.634 45.192 549.178 43.208C553.786 41.224 559.162 40.232 565.306 40.232C571.578 40.232 576.794 41.224 580.954 43.208C585.114 45.192 588.186 48.2 590.17 52.232C592.218 56.2 593.082 61.288 592.762 67.496H547.258C547.578 69.928 548.474 72.136 549.946 74.12C551.482 76.104 553.53 77.672 556.09 78.824C558.714 79.976 561.818 80.552 565.402 80.552C569.37 80.552 572.666 79.88 575.29 78.536C577.978 77.128 579.706 75.336 580.474 73.16ZM564.73 49.736C560.122 49.736 556.378 50.76 553.498 52.808C550.618 54.792 548.762 57.256 547.93 60.2H580.378C580.058 57 578.522 54.472 575.77 52.616C573.082 50.696 569.402 49.736 564.73 49.736Z" fill="#151515"/>
</svg>
